<svg xmlns="http://www.w3.org/2000/svg" width="26.646" height="26.646" viewBox="0 0 26.646 26.646">
  <path id="パス_17" data-name="パス 17" d="M8.359,14.532a22.425,22.425,0,0,0,9.755,9.755l3.257-3.257a1.472,1.472,0,0,1,1.51-.355,16.886,16.886,0,0,0,5.285.844A1.485,1.485,0,0,1,29.646,23v5.166a1.485,1.485,0,0,1-1.48,1.48A25.163,25.163,0,0,1,3,4.48,1.485,1.485,0,0,1,4.48,3H9.661a1.485,1.485,0,0,1,1.48,1.48,16.817,16.817,0,0,0,.844,5.285,1.486,1.486,0,0,1-.37,1.51Z" transform="translate(-3 -3)" fill="#fbc032"/>
</svg>
